<svg width="78" height="78" viewBox="0 0 78 78" fill="none" xmlns="http://www.w3.org/2000/svg">
<g clip-path="url(#clip0_5_131)">
<path d="M68 0H10C4.47715 0 0 4.47715 0 10V68C0 73.5229 4.47715 78 10 78H68C73.5229 78 78 73.5229 78 68V10C78 4.47715 73.5229 0 68 0Z" fill="#333333"/>
<path d="M19.928 15.42V31.572H16.232V19.152L12.812 21.288L11.204 18.684L16.568 15.42H19.928ZM23.036 29.184V32.052H12.224V29.184H23.036ZM34.3186 15.42V31.572H30.6226V19.152L27.2026 21.288L25.5946 18.684L30.9586 15.42H34.3186ZM37.4266 29.184V32.052H26.6146V29.184H37.4266ZM45.7933 15C47.7773 15 49.2733 15.768 50.2813 17.304C51.2973 18.832 51.8053 20.964 51.8053 23.7C51.8053 26.444 51.2973 28.592 50.2813 30.144C49.2733 31.688 47.7773 32.46 45.7933 32.46C43.7933 32.46 42.2893 31.688 41.2813 30.144C40.2813 28.592 39.7813 26.444 39.7813 23.7C39.7813 20.964 40.2813 18.832 41.2813 17.304C42.2893 15.768 43.7933 15 45.7933 15ZM45.7933 17.748C44.9453 17.748 44.3253 18.204 43.9333 19.116C43.5413 20.02 43.3453 21.548 43.3453 23.7C43.3453 24.948 43.3813 25.968 43.4533 26.76C43.5333 27.544 43.6653 28.152 43.8493 28.584C44.0333 29.016 44.2813 29.316 44.5932 29.484C44.9133 29.644 45.3133 29.724 45.7933 29.724C46.3613 29.724 46.8213 29.532 47.1733 29.148C47.5333 28.764 47.7973 28.132 47.9653 27.252C48.1333 26.364 48.2173 25.18 48.2173 23.7C48.2173 22.068 48.1453 20.824 48.0013 19.968C47.8573 19.112 47.6093 18.528 47.2573 18.216C46.9133 17.904 46.4253 17.748 45.7933 17.748ZM47.6773 18.276L48.6493 20.352L44.2093 29.52L43.1173 27.816L47.6773 18.276ZM60.1839 15C62.1679 15 63.6639 15.768 64.6719 17.304C65.6879 18.832 66.1959 20.964 66.1959 23.7C66.1959 26.444 65.6879 28.592 64.6719 30.144C63.6639 31.688 62.1679 32.46 60.1839 32.46C58.1839 32.46 56.6799 31.688 55.6719 30.144C54.6719 28.592 54.1719 26.444 54.1719 23.7C54.1719 20.964 54.6719 18.832 55.6719 17.304C56.6799 15.768 58.1839 15 60.1839 15ZM60.1839 17.748C59.3359 17.748 58.7159 18.204 58.3239 19.116C57.9319 20.02 57.7359 21.548 57.7359 23.7C57.7359 24.948 57.7719 25.968 57.8439 26.76C57.9239 27.544 58.0559 28.152 58.2399 28.584C58.4239 29.016 58.6719 29.316 58.9839 29.484C59.3039 29.644 59.7039 29.724 60.1839 29.724C60.7519 29.724 61.2119 29.532 61.5639 29.148C61.9239 28.764 62.1879 28.132 62.3559 27.252C62.5239 26.364 62.6079 25.18 62.6079 23.7C62.6079 22.068 62.5359 20.824 62.3919 19.968C62.2479 19.112 61.9999 18.528 61.6479 18.216C61.3039 17.904 60.8159 17.748 60.1839 17.748ZM62.0679 18.276L63.0399 20.352L58.5999 29.52L57.5079 27.816L62.0679 18.276ZM17.012 46C18.996 46 20.492 46.768 21.5 48.304C22.516 49.832 23.024 51.964 23.024 54.7C23.024 57.444 22.516 59.592 21.5 61.144C20.492 62.688 18.996 63.46 17.012 63.46C15.012 63.46 13.508 62.688 12.5 61.144C11.5 59.592 11 57.444 11 54.7C11 51.964 11.5 49.832 12.5 48.304C13.508 46.768 15.012 46 17.012 46ZM17.012 48.748C16.164 48.748 15.544 49.204 15.152 50.116C14.76 51.02 14.564 52.548 14.564 54.7C14.564 55.948 14.6 56.968 14.672 57.76C14.752 58.544 14.884 59.152 15.068 59.584C15.252 60.016 15.5 60.316 15.812 60.484C16.132 60.644 16.532 60.724 17.012 60.724C17.58 60.724 18.04 60.532 18.392 60.148C18.752 59.764 19.016 59.132 19.184 58.252C19.352 57.364 19.436 56.18 19.436 54.7C19.436 53.068 19.364 51.824 19.22 50.968C19.076 50.112 18.828 49.528 18.476 49.216C18.132 48.904 17.644 48.748 17.012 48.748ZM18.896 49.276L19.868 51.352L15.428 60.52L14.336 58.816L18.896 49.276ZM31.4026 46C33.3866 46 34.8826 46.768 35.8906 48.304C36.9066 49.832 37.4146 51.964 37.4146 54.7C37.4146 57.444 36.9066 59.592 35.8906 61.144C34.8826 62.688 33.3866 63.46 31.4026 63.46C29.4026 63.46 27.8986 62.688 26.8906 61.144C25.8906 59.592 25.3906 57.444 25.3906 54.7C25.3906 51.964 25.8906 49.832 26.8906 48.304C27.8986 46.768 29.4026 46 31.4026 46ZM31.4026 48.748C30.5546 48.748 29.9346 49.204 29.5426 50.116C29.1506 51.02 28.9546 52.548 28.9546 54.7C28.9546 55.948 28.9906 56.968 29.0626 57.76C29.1426 58.544 29.2746 59.152 29.4586 59.584C29.6426 60.016 29.8906 60.316 30.2026 60.484C30.5226 60.644 30.9226 60.724 31.4026 60.724C31.9706 60.724 32.4306 60.532 32.7826 60.148C33.1426 59.764 33.4066 59.132 33.5746 58.252C33.7426 57.364 33.8266 56.18 33.8266 54.7C33.8266 53.068 33.7546 51.824 33.6106 50.968C33.4666 50.112 33.2186 49.528 32.8666 49.216C32.5226 48.904 32.0346 48.748 31.4026 48.748ZM33.2866 49.276L34.2586 51.352L29.8186 60.52L28.7266 58.816L33.2866 49.276ZM48.7093 46.42V62.572H45.0133V50.152L41.5932 52.288L39.9853 49.684L45.3493 46.42H48.7093ZM51.8172 60.184V63.052H41.0053V60.184H51.8172ZM63.0999 46.42V62.572H59.4039V50.152L55.9839 52.288L54.3759 49.684L59.7399 46.42H63.0999ZM66.2079 60.184V63.052H55.3959V60.184H66.2079Z" fill="white"/>
</g>
<defs>
<clipPath id="clip0_5_131">
<rect width="78" height="78" fill="white"/>
</clipPath>
</defs>
</svg>
